<?xml version="1.0" encoding="utf-8"?>
<!-- Generator: Adobe Illustrator 24.0.0, SVG Export Plug-In . SVG Version: 6.00 Build 0)  -->
<svg version="1.1" id="レイヤー_1" xmlns="http://www.w3.org/2000/svg" xmlns:xlink="http://www.w3.org/1999/xlink" x="0px"
	 y="0px" width="628px" height="80px" viewBox="0 0 628 80" style="enable-background:new 0 0 628 80;" xml:space="preserve">
<style type="text/css">
	.st0{fill:#CCCCCC;}
	.st1{fill:#FFFFFF;}
</style>
<g>
	<path class="st1" d="M0,3.14h17.26v75.78H0V3.14z"/>
	<path class="st1" d="M74.74,18.24H57.39v60.69H40.14V18.24H22.98V3.14h51.77V18.24z"/>
	<path class="st1" d="M159.35,78.92h-17.84l-4.41-17.65h-17.45l-4.12,17.65H98.07l20-75.78h21.86L159.35,78.92z M135.04,48.24
		l-3.33-15.2c-0.98-4.51-2.25-11.27-3.24-15.88h-0.2c-0.98,4.61-2.25,11.57-3.14,15.88l-3.43,15.2H135.04z"/>
	<path class="st1" d="M212.43,61.18c0,6.76,0.29,12.84,0.49,17.75h-14.9l-0.78-6.86h-0.29c-2.35,3.53-7.35,7.94-15.39,7.94
		c-11.18,0-17.45-7.55-17.45-23.43V23.73h17.25v30.39c0,7.45,2.06,11.77,6.86,11.77c3.53,0,6.96-2.75,6.96-8.33V23.73h17.26V61.18z"
		/>
	<path class="st1" d="M225.19,13.63l17.06-4.8v14.9h11.47v12.45h-11.47v20.78c0,6.47,2.06,8.82,6.18,8.82c1.96,0,3.04-0.1,4.51-0.49
		l0.1,13.33c-2.16,0.69-5.98,1.27-10.59,1.27c-16.96,0-17.26-14.51-17.26-20.79V36.18h-6.76V23.73h6.76V13.63z"/>
	<path class="st1" d="M308.79,50.98c0,21.47-13.82,29.02-25.88,29.02c-15.29,0-25.78-10.59-25.78-28.33
		c0-18.53,11.18-29.02,26.37-29.02C299.28,22.65,308.79,34.41,308.79,50.98z M283.11,35.2c-6.47,0-8.53,8.43-8.53,16.08
		c0,9.22,2.65,16.18,8.53,16.18c5.59,0,8.24-7.35,8.24-16.18C291.34,43.14,288.99,35.2,283.11,35.2z"/>
	<path class="st1" d="M393.68,78.92h-16.96V48.14c0-6.96-1.57-11.47-6.27-11.47c-4.02,0-6.86,3.43-6.86,9.02v33.24h-16.96V46.76
		c0-5.39-1.37-10.1-6.18-10.1c-2.55,0-6.96,2.06-6.96,9.12v33.14h-16.96V41.37c0-6.57-0.2-12.45-0.39-17.65h14.71l0.78,6.86h0.29
		c2.55-3.43,7.35-7.94,15.2-7.94c6.76,0,11.67,3.24,13.82,8.43h0.2c2.16-3.14,7.16-8.43,15.69-8.43c10.78,0,16.86,8.04,16.86,22.74
		V78.92z"/>
	<path class="st1" d="M447.22,65.88c0,4.9,0.2,9.71,0.88,13.04h-15.49l-0.98-5.29h-0.29c-3.33,4.41-8.53,6.37-14.22,6.37
		c-10,0-16.57-7.65-16.57-16.96c0-14.61,13.04-20.88,29.31-20.98c0-4.22-1.86-7.26-8.82-7.26c-5.2,0-10.1,1.57-13.63,3.73
		l-3.14-11.18c3.53-1.96,10.69-4.71,20.2-4.71c18.24,0,22.74,11.57,22.74,23.82V65.88z M430.46,52.84c-7.16,0-13.24,2.06-13.24,8.43
		c0,4.51,2.74,6.47,5.78,6.47c3.53,0,7.45-2.55,7.45-7.74V52.84z"/>
	<path class="st1" d="M458.97,13.63l17.06-4.8v14.9h11.47v12.45h-11.47v20.78c0,6.47,2.06,8.82,6.18,8.82c1.96,0,3.04-0.1,4.51-0.49
		l0.1,13.33c-2.16,0.69-5.98,1.27-10.59,1.27c-16.96,0-17.26-14.51-17.26-20.79V36.18h-6.76V23.73h6.76V13.63z"/>
	<path class="st1" d="M503.48,17.55c-5.2,0-8.82-3.73-8.82-8.73c0-5.2,3.73-8.82,8.82-8.82c5.2,0,8.82,3.63,8.82,8.82
		S508.48,17.55,503.48,17.55z M512.11,78.92h-17.26v-55.2h17.26V78.92z"/>
	<path class="st1" d="M570.98,50.98c0,21.47-13.82,29.02-25.88,29.02c-15.29,0-25.78-10.59-25.78-28.33
		c0-18.53,11.18-29.02,26.37-29.02C561.47,22.65,570.98,34.41,570.98,50.98z M545.29,35.2c-6.47,0-8.53,8.43-8.53,16.08
		c0,9.22,2.65,16.18,8.53,16.18c5.59,0,8.24-7.35,8.24-16.18C553.53,43.14,551.18,35.2,545.29,35.2z"/>
	<path class="st1" d="M627.33,78.92h-17.26V46.86c0-5.78-1.76-10-6.67-10c-3.63,0-7.45,2.65-7.45,9.7v32.35H578.7V41.37
		c0-6.57-0.2-12.45-0.39-17.65h14.8l0.88,6.96h0.29c2.45-3.73,7.65-8.04,15.29-8.04c11.57,0,17.75,8.33,17.75,22.65V78.92z"/>
</g>
</svg>
