<?xml version="1.0" encoding="utf-8"?>
<!-- Generator: Adobe Illustrator 24.0.0, SVG Export Plug-In . SVG Version: 6.00 Build 0)  -->
<svg version="1.1" id="レイヤー_1" xmlns="http://www.w3.org/2000/svg" xmlns:xlink="http://www.w3.org/1999/xlink" x="0px"
	 y="0px" viewBox="0 0 240 240" style="enable-background:new 0 0 240 240;" xml:space="preserve">
<style type="text/css">
	.st0{fill:#707070;}
	.st1{fill:none;}
	.st2{fill:#60C60D;}
	.st3{fill:#0071BC;}
	.st4{fill-rule:evenodd;clip-rule:evenodd;fill:#60C60D;}
	.st5{fill-rule:evenodd;clip-rule:evenodd;fill:#0071BC;}
</style>
<g>
	<g>
		<path class="st0" d="M84.82,151.8c-0.05,0.05-0.08,0.15,0.01,0.17s0.25-0.16,0.29-0.24C85.03,151.73,84.86,151.75,84.82,151.8z"/>
		<path class="st0" d="M229.34,153.69c0.62-5.41-5.49-7.33-9.65-7.26c-13.34,1.17-26.07,1.3-38.48,6.34
			c-3.54-7.23-6.45-12.55-12.35-18.77c-5.91-6.22-14.62-11.81-23.09-14.93c-8.59,9.99-16.73,20.34-25.5,30.17
			c-7.45-10.88-13.81-22.47-21.06-33.48c-9.81,2.86-17.76,7.43-25.85,13.6c-6.8,5.72-13.18,11.84-18.78,18.82
			c-8.8-6.14-26.65-11.67-34.79-14.81s-9.34-0.56-12.53,3.96s0.26,9.57,4.09,12.41c12.47,4.6,29.07,14.76,37.68,21.77
			c8.61,7.01,9.89,1.98,16.29-0.71c5.82-7.2,12.34-13.05,19.51-18.84c-0.01,0.01-0.05-0.14,0-0.17c0.05-0.03,0.22-0.08,0.3-0.06
			c-0.09,0.06-0.2,0.18-0.3,0.23c-0.39,29.01-2.02,61.69-2.94,90.68c21.62,1.24,43.42-1.19,65.04,0c2.48-29.18,2.77-59.2,6.75-88.14
			c5.31,5.05,8.85,11.45,12.44,17.45c3.59,6,8.27,6.4,14.55,4.35c10.2-7.75,30.8-9.86,40.37-11.64S228.72,159.1,229.34,153.69z
			 M118.08,182.64c-1.64-0.08-2.77-1.44-2.67-3.06c0.1-1.62,1.4-2.81,3.03-2.72c1.63,0.09,2.78,1.41,2.68,3.04
			S119.72,182.72,118.08,182.64z M119.06,166.72c-1.61-0.05-2.76-1.38-2.65-2.98c0.11-1.6,1.42-2.76,3.02-2.71s2.76,1.32,2.64,2.91
			S120.67,166.76,119.06,166.72z"/>
	</g>
	<path class="st0" d="M111.65,65.06c-0.67,0.79-1.33,1.48-1.96,2.08c0.02-0.16,0.02-0.32-0.01-0.49c-0.38-1.84-0.79-3.6-1.22-5.28
		c0.17-0.33,0.35-0.66,0.51-1l0.43-0.92l-0.76-0.67c-0.4-0.36-0.78-0.67-1.16-0.95c-0.23-0.8-0.47-1.57-0.72-2.32
		c2.29-1.69,2.19-3.84,2-4.79c-0.34-1.74-1.59-3.37-3.33-4.62c2.11-2.66,3.38-5.56,3.25-8.21c-0.12-2.46-1.52-6.1-8.31-7.5
		c0.41-4.86-1.29-7.59-2.68-8.98c-1.99-1.99-4.93-2.86-8.1-2.54c-0.98-0.8-2.14-1.38-3.45-1.71c-4.99-1.26-11.04,1.39-14.49,6.47
		c-0.33,0.48-0.68,1-1.05,1.55c-7.44,1.24-13.74,5.49-16.82,10.13c-0.01,0.02-0.02,0.03-0.03,0.05c-2.41,3.66-2.7,7.38-0.79,10.22
		c1.34,2,3.17,3.37,5.41,4.1c0.83,7.82,4.62,10.6,8.03,11.47c2.09,0.54,4.41,0.46,6.82-0.11c0.77,1.07,1.7,1.97,2.77,2.64
		c1.95,1.21,5.54,2.35,10.95-0.02c1.11,2.13,3,3.77,5.53,4.67c1.99,0.7,4.29,0.84,6.59,0.34c0.83,1.64,2.08,3.02,3.88,3.61
		c2.21,0.72,5.88,0.37,10.8-5.44c0.04-0.04,0.07-0.09,0.1-0.14c0.37-0.57,0.27-1.33-0.25-1.78C113,64.41,112.14,64.48,111.65,65.06z
		 M106.1,51.24c0.1,0.52,0.01,0.98-0.3,1.43c-0.52-1.45-1.07-2.82-1.63-4.12C105.21,49.38,105.92,50.35,106.1,51.24z M99.33,35.51
		c2-0.56,3.36-0.51,3.84,0.23c0.85,1.31,0.07,4.35-1.46,7.77c-1.08-1.97-2.19-3.75-3.33-5.33C98.75,37.24,99.06,36.35,99.33,35.51z
		 M97.07,41.07c0.57,0.85,1.12,1.75,1.65,2.68c-0.11,0-0.22-0.01-0.33-0.01c-0.78-0.02-1.87,0.05-3.1,0.38
		C95.96,43.11,96.56,42.09,97.07,41.07z M95.1,34.18c-0.55-0.59-1.1-1.14-1.65-1.65c1.37-0.01,2.64,0.04,3.81,0.15
		c-0.05,0.23-0.1,0.45-0.16,0.68C96.34,33.63,95.65,33.92,95.1,34.18z M98.33,46.47c0.61,0.01,1.21,0.08,1.79,0.21
		c-0.32,0.58-0.64,1.16-0.98,1.72c-1.63,1.22-3.45,2.28-5.35,3.02c-0.67-0.66-1.27-1.39-1.77-2.18
		C93.7,47.37,95.83,46.41,98.33,46.47z M101.23,50.22c0.17-0.13,0.33-0.26,0.5-0.4c0.6,1.39,1.17,2.84,1.7,4.35
		c-1.64,0.56-3.32,0.54-4.92,0.08C99.42,53.03,100.35,51.66,101.23,50.22z M91.79,21.56c1.58,0.17,2.97,0.76,3.98,1.77
		c1.48,1.48,2.11,3.77,1.89,6.65c-1.5-0.15-3.19-0.21-5.12-0.16c0.46-1.33,0.66-2.63,0.53-3.84C92.91,24.31,92.47,22.82,91.79,21.56
		z M91.83,34.7c0.26,0.25,0.52,0.51,0.78,0.78c-0.33,0.21-0.64,0.43-0.94,0.66C91.76,35.64,91.81,35.16,91.83,34.7z M94.46,37.54
		c0.27,0.33,0.54,0.66,0.8,1c-0.02,0.04-0.04,0.08-0.05,0.11c-1.11,2.5-2.71,4.96-4.6,7.25C90.09,43.58,90.21,40.03,94.46,37.54z
		 M88.67,21.76c0.93,1.12,1.52,2.64,1.71,4.5c0.06,0.57,0.01,1.19-0.14,1.84c-0.39-0.57-0.81-1.05-1.24-1.46
		c-1.36-1.3-3.16-2.19-5.22-2.65c0.8-0.58,1.63-1.05,2.46-1.42C87.05,22.21,87.87,21.94,88.67,21.76z M88.25,38.7
		c-1.34,4.1-4.67,7.4-8.52,8.57c-0.4-0.79-0.74-1.67-1.03-2.63c3.95-2.5,7.62-5.61,10.26-8.82C88.83,36.72,88.59,37.68,88.25,38.7z
		 M90.89,52.29c-0.3,0.06-0.59,0.11-0.89,0.15c0.12-0.27,0.25-0.54,0.39-0.79C90.55,51.87,90.71,52.08,90.89,52.29z M87.67,33.1
		c-2.25,3.01-5.69,6.15-9.62,8.74c-0.14-0.8-0.25-1.64-0.33-2.52C79.82,36.67,82.97,34.16,87.67,33.1z M77.63,35.45
		c0.2-2.92,1.07-5.38,2.32-7.37c2.26,0.5,4.43,1.35,6.48,2.53C82.85,31.56,79.93,33.29,77.63,35.45z M85.48,19.79
		c0.07,0.02,0.14,0.04,0.21,0.06c-0.19,0.07-0.38,0.16-0.56,0.24c-1.76,0.79-3.54,1.97-5.11,3.55c-1.81,0.03-3.73,0.32-5.67,0.89
		C77.08,20.88,81.77,18.85,85.48,19.79z M67.55,45.62c0.25,0.33,0.51,0.65,0.79,0.94c-2.15,0.66-4.86,1.2-7.38,0.87
		c-0.05-1.49,0.01-2.99,0.12-4.42c0.41-4.88,2.82-8.69,5.91-11.41C65.02,36.08,64.18,41.17,67.55,45.62z M58.21,46.65
		c-1.14-0.54-2.17-1.38-2.98-2.6c-1.72-2.57-0.25-5.6,0.81-7.21c0.01-0.01,0.02-0.03,0.03-0.04c1.87-2.82,5.1-5.47,9.1-7.21
		c-3.55,3.12-6.34,7.54-6.8,13.21C58.24,44.18,58.2,45.46,58.21,46.65z M71.83,58.49c-1.74,0.34-3.35,0.37-4.76,0
		c-3.69-0.94-5.31-4.34-5.88-8.27c2.72,0.24,5.89-0.27,9.39-1.54c0.05-0.02,0.11-0.04,0.16-0.06c0.03,0.02,0.06,0.04,0.09,0.06
		C70.31,52.28,70.69,55.72,71.83,58.49z M71.16,45.54c-0.51-0.45-1-0.97-1.44-1.56c-3.59-4.75-0.91-10.77,2.03-15.54
		c0.59-0.29,1.18-0.54,1.76-0.76c0.11-0.04,0.22-0.09,0.34-0.13c1.05-0.05,2.13-0.02,3.21,0.07c-1.5,2.79-2.39,6.25-2.16,10.38
		c0.01,0.17,0.02,0.34,0.03,0.52c-1.57,2.16-2.67,4.52-3.36,6.85C71.43,45.43,71.29,45.48,71.16,45.54z M76.97,47.71
		c-1.03,0.02-2.02-0.14-2.96-0.48c0.77-0.37,1.54-0.77,2.31-1.19C76.52,46.64,76.74,47.19,76.97,47.71z M74.48,57.76
		c-0.96-2.16-1.35-4.92-1.05-7.85c1.58,0.5,3.27,0.65,5.01,0.42c1.1,1.57,2.37,2.66,3.66,3.41C79.56,55.5,76.96,56.89,74.48,57.76z
		 M86.19,55.25c-0.51,2.09-0.55,4.06-0.17,5.83c-3.4,1.55-6.35,1.67-8.59,0.27c-0.51-0.32-0.98-0.72-1.41-1.18
		c3.06-1.15,6.19-2.97,9.11-5.22c0.37,0.09,0.73,0.16,1.08,0.22C86.21,55.19,86.2,55.22,86.19,55.25z M84.49,51.93
		c-1.23-0.5-2.3-1.28-3.21-2.33c2.45-0.9,4.68-2.5,6.44-4.55c0.1,1.12,0.38,2.21,0.77,3.22C87.23,49.58,85.89,50.81,84.49,51.93z
		 M88.84,55.89c0.05-0.2,0.1-0.4,0.15-0.6c1.38-0.09,2.77-0.36,4.17-0.78c0.33,0.26,0.68,0.51,1.03,0.75
		c-0.37,0.39-0.73,0.74-1.07,1.04c-1.58,1.37-3.11,2.51-4.57,3.42C88.41,58.6,88.49,57.32,88.84,55.89z M97.81,63.98
		c0.05,0.68,0.15,1.39,0.33,2.12c-1.65,0.29-3.3,0.16-4.77-0.36c-1.58-0.56-3.09-1.66-4-3.35c1.69-0.99,3.53-2.3,5.53-4.03
		c0.54-0.47,1.14-1.08,1.78-1.81c0.97,0.38,1.98,0.63,3.02,0.74C98.31,58.7,97.61,61.12,97.81,63.98z M100.53,63.79
		c-0.17-2.37,0.48-4.41,1.59-4.95c0.72-0.35,1.77-0.11,3.02,0.67c0.14,0.48,0.27,0.96,0.4,1.45c-1.34,2.1-3.01,3.46-4.8,4.31
		C100.63,64.77,100.56,64.27,100.53,63.79z M103.77,69.67c-0.87-0.29-1.57-0.99-2.09-1.89c1.69-0.76,3.3-1.9,4.7-3.46
		c0.22,0.94,0.43,1.9,0.63,2.88c0.13,0.64,0.7,1.09,1.33,1.09C106.59,69.59,105.02,70.08,103.77,69.67z"/>
	<path class="st0" d="M164.31,72.31c-0.44,0.26-0.6,0.81-0.4,1.27c0.02,0.04,0.03,0.07,0.05,0.11c2.88,4.82,5.51,5.52,7.2,5.26
		c1.38-0.21,2.46-1.07,3.26-2.16c1.61,0.64,3.3,0.82,4.83,0.55c1.95-0.34,3.52-1.31,4.59-2.72c3.64,2.38,6.4,1.98,7.96,1.34
		c0.86-0.36,1.65-0.9,2.34-1.58c1.68,0.7,3.36,1.04,4.95,0.9c2.58-0.22,5.68-1.78,7.22-7.37c1.72-0.26,3.21-1.03,4.43-2.33
		c1.73-1.83,1.96-4.58,0.66-7.53c-0.01-0.01-0.01-0.03-0.02-0.04c-1.68-3.74-5.75-7.6-11.01-9.4c-0.2-0.45-0.39-0.87-0.57-1.26
		c-1.9-4.11-5.97-6.77-9.76-6.46c-1,0.08-1.91,0.36-2.72,0.83c-2.27-0.62-4.51-0.34-6.2,0.87c-1.19,0.84-2.75,2.63-3.04,6.21
		c-5.11,0.2-6.56,2.68-6.95,4.45c-0.41,1.91,0.15,4.17,1.37,6.36c-1.41,0.69-2.52,1.73-2.98,2.96c-0.25,0.67-0.59,2.21,0.88,3.72
		c-0.27,0.52-0.54,1.05-0.8,1.6c-0.31,0.15-0.62,0.34-0.96,0.55l-0.63,0.4l0.2,0.72c0.08,0.27,0.16,0.53,0.25,0.79
		c-0.52,1.17-1.02,2.4-1.52,3.69c-0.04,0.12-0.06,0.24-0.07,0.36c-0.39-0.51-0.78-1.1-1.18-1.75
		C165.4,72.18,164.79,72.02,164.31,72.31z M173.13,61.56c-0.57,0.88-1.13,1.81-1.68,2.8c-0.17-0.36-0.19-0.71-0.05-1.07
		C171.63,62.65,172.27,62.03,173.13,61.56z M178.59,54.71c-1.02,1.01-2.05,2.17-3.07,3.47c-0.7-2.67-0.9-4.98-0.12-5.82
		c0.43-0.48,1.43-0.35,2.82,0.3C178.31,53.3,178.44,53.99,178.59,54.71z M180.12,59.41c-0.85-0.39-1.64-0.57-2.21-0.65
		c-0.08-0.01-0.16-0.02-0.24-0.04c0.5-0.61,1.01-1.2,1.53-1.75C179.44,57.78,179.76,58.59,180.12,59.41z M180.11,51.36
		c-0.01-0.17-0.03-0.34-0.03-0.51c0.86,0.06,1.79,0.18,2.79,0.35c-0.46,0.31-0.93,0.64-1.4,1
		C181.09,51.95,180.63,51.65,180.11,51.36z M181.88,63.53c-0.46,0.51-0.98,0.97-1.55,1.37c-1.29-0.77-2.49-1.75-3.53-2.84
		c-0.18-0.45-0.34-0.91-0.51-1.37c0.44-0.02,0.88,0,1.33,0.06C179.45,61.01,180.89,61.96,181.88,63.53z M176.55,66.38
		c-1.22,0.14-2.44-0.05-3.56-0.65c0.57-1.03,1.16-2.02,1.76-2.96c0.1,0.12,0.21,0.24,0.31,0.35
		C175.53,64.28,176.04,65.39,176.55,66.38z M183.92,46.48c-0.24,0.87-0.25,1.83-0.08,2.86c-1.39-0.27-2.63-0.43-3.74-0.5
		c0.19-2.12,0.93-3.71,2.18-4.61c0.86-0.61,1.94-0.88,3.11-0.81C184.74,44.26,184.24,45.29,183.92,46.48z M183.71,54.04
		c-0.19-0.2-0.39-0.4-0.6-0.59c0.22-0.16,0.44-0.32,0.66-0.47C183.74,53.31,183.72,53.67,183.71,54.04z M183.31,61.27
		c-1.1-1.89-1.96-3.88-2.47-5.83c-0.01-0.03-0.02-0.06-0.02-0.09c0.23-0.22,0.47-0.43,0.71-0.63
		C184.31,57.05,183.97,59.64,183.31,61.27z M189.31,44.83c0.56,0.37,1.1,0.82,1.62,1.33c-1.56,0.09-2.97,0.51-4.12,1.29
		c-0.36,0.24-0.73,0.54-1.08,0.91c-0.03-0.49,0.01-0.94,0.12-1.35c0.37-1.33,0.98-2.36,1.79-3.06
		C188.2,44.17,188.76,44.47,189.31,44.83z M185.72,54.12c1.54,2.66,3.83,5.36,6.4,7.66c-0.33,0.67-0.68,1.26-1.07,1.79
		c-2.66-1.31-4.68-4.11-5.16-7.26C185.77,55.53,185.71,54.8,185.72,54.12z M182.78,65.48c0.07,0.2,0.13,0.41,0.19,0.62
		c-0.21-0.07-0.42-0.14-0.63-0.22C182.49,65.75,182.63,65.62,182.78,65.48z M193.48,58.03c-0.17,0.63-0.35,1.23-0.54,1.8
		c-2.54-2.36-4.67-5.06-5.94-7.52C190.28,53.66,192.27,55.86,193.48,58.03z M188.2,50.65c1.63-0.61,3.31-0.96,5.02-1.05
		c0.67,1.6,1.01,3.49,0.8,5.64C192.6,53.38,190.69,51.77,188.2,50.65z M197.72,47.69c-1.34-0.65-2.7-1.1-4.02-1.34
		c-0.95-1.34-2.1-2.41-3.29-3.2c-0.13-0.08-0.25-0.16-0.38-0.24c0.05-0.01,0.11-0.01,0.16-0.02C193,42.67,196.17,44.71,197.72,47.69
		z M202.22,53.73c1.92,2.35,3.21,5.41,2.92,9.01c-0.09,1.05-0.23,2.15-0.45,3.23c-1.88-0.06-3.78-0.78-5.27-1.53
		c0.23-0.18,0.46-0.38,0.69-0.59C203.1,61.02,203.11,57.22,202.22,53.73z M207.14,62.91c0.35-4.18-1.15-7.73-3.35-10.43
		c2.69,1.75,4.72,4.07,5.74,6.34c0.01,0.01,0.01,0.03,0.02,0.04c0.57,1.29,1.28,3.68-0.28,5.34c-0.74,0.79-1.59,1.27-2.48,1.53
		C206.94,64.87,207.06,63.93,207.14,62.91z M197.36,65.69c0.02-0.01,0.05-0.02,0.07-0.03c0.04,0.02,0.07,0.04,0.11,0.06
		c2.39,1.35,4.64,2.1,6.65,2.26c-0.89,2.79-2.48,5.07-5.28,5.31c-1.07,0.09-2.24-0.12-3.46-0.58
		C196.61,70.81,197.3,68.36,197.36,65.69z M197.22,63.18c-0.22-1.77-0.74-3.62-1.62-5.39c0.03-0.12,0.06-0.25,0.09-0.37
		c0.67-2.98,0.44-5.6-0.32-7.81c0.8,0.06,1.58,0.17,2.34,0.33c0.08,0.04,0.16,0.09,0.23,0.13c0.4,0.23,0.8,0.49,1.19,0.77
		c1.57,3.82,2.78,8.53-0.4,11.54c-0.39,0.37-0.8,0.69-1.23,0.96C197.41,63.3,197.32,63.24,197.22,63.18z M193.68,63.1
		c0.51,0.4,1.02,0.79,1.53,1.15c-0.72,0.13-1.46,0.12-2.21-0.01C193.24,63.88,193.47,63.51,193.68,63.1z M188.55,67.99
		c1.03-0.39,2.08-1.03,3.07-2.04c1.24,0.38,2.49,0.48,3.7,0.3c-0.14,2.17-0.75,4.13-1.71,5.58
		C191.91,70.91,190.18,69.58,188.55,67.99z M185.39,68.54c0.26,0,0.54,0,0.81-0.03c1.86,1.99,3.91,3.69,6,4.9
		c-0.36,0.29-0.75,0.52-1.17,0.69c-1.81,0.75-3.93,0.31-6.22-1.23c0.49-1.24,0.7-2.69,0.58-4.26
		C185.39,68.58,185.39,68.56,185.39,68.54z M184.56,63.25c0.41-0.69,0.74-1.45,0.95-2.25c1.03,1.71,2.47,3.14,4.14,4.09
		c-0.79,0.65-1.66,1.09-2.62,1.3C186.15,65.41,185.32,64.35,184.56,63.25z M183.14,71.56c-0.96-0.84-1.93-1.85-2.91-3.04
		c-0.21-0.26-0.43-0.56-0.66-0.89c0.29-0.13,0.57-0.27,0.84-0.42c0.96,0.48,1.95,0.84,2.94,1.07c0.02,0.15,0.03,0.3,0.04,0.46
		C183.47,69.83,183.37,70.77,183.14,71.56z M175.33,68.45c0.76,0.05,1.53-0.02,2.28-0.18c0.38,0.61,0.74,1.13,1.08,1.53
		c1.24,1.5,2.42,2.68,3.53,3.6c-0.87,1.12-2.1,1.74-3.32,1.95c-1.13,0.2-2.34,0.1-3.51-0.32c0.21-0.51,0.38-1.01,0.49-1.5
		C176.38,71.49,176.17,69.65,175.33,68.45z M173.6,74.13c-1.2-0.83-2.25-2.02-2.97-3.71c0.15-0.34,0.31-0.67,0.47-1.01
		c1-0.42,1.8-0.47,2.28-0.13c0.74,0.53,0.96,2.09,0.56,3.8C173.85,73.42,173.74,73.78,173.6,74.13z M167.71,75.4
		c0.46,0.08,0.92-0.18,1.1-0.63c0.26-0.69,0.53-1.36,0.81-2.02c0.83,1.3,1.86,2.33,3,3.08c-0.49,0.59-1.08,1.02-1.75,1.12
		C169.9,77.11,168.82,76.56,167.71,75.4z"/>
	
		<rect x="119.95" y="115.4" transform="matrix(0.0923 -0.9957 0.9957 0.0923 -8.8745 231.5693)" class="st0" width="5.25" height="10.51"/>
	<polygon class="st0" points="115.69,138.04 120.3,145.24 126.16,139.01 127.36,126.04 116.89,125.07 	"/>
	<path class="st0" d="M157.95,95.6c-4.46,12.04-17.85,18.19-29.89,13.73c-12.05-4.46-18.19-17.84-13.73-29.89
		c4.46-12.04,17.84-18.19,29.89-13.73C156.26,70.18,162.41,83.56,157.95,95.6z"/>
</g>
</svg>
