<?xml version="1.0" encoding="utf-8"?>
<!-- Generator: Adobe Illustrator 24.0.0, SVG Export Plug-In . SVG Version: 6.00 Build 0)  -->
<svg version="1.1" id="レイヤー_1" xmlns="http://www.w3.org/2000/svg" xmlns:xlink="http://www.w3.org/1999/xlink" x="0px"
	 y="0px" viewBox="0 0 240 240" style="enable-background:new 0 0 240 240;" xml:space="preserve">
<style type="text/css">
	.st0{fill:#707070;}
	.st1{fill:#FF640A;}
	.st2{fill:#002B62;}
	.st3{fill-rule:evenodd;clip-rule:evenodd;fill:#FF640A;}
	.st4{fill-rule:evenodd;clip-rule:evenodd;fill:#002B62;}
</style>
<rect x="114.73" y="120" class="st2" width="10.54" height="6.32"/>
<polygon class="st2" points="114.73,144.77 120,152.89 125.27,144.77 125.27,129.09 114.73,129.09 "/>
<path class="st2" d="M76.96,151.62c0.32,24.98,9.49,60.21,10.53,89.22c21.66-0.09,43.34-0.12,64.99-0.09
	c0.86-22.31,12.29-75.73,10.92-90.6c9,3.94,23.56,5.18,32.33,4.87c8.78-0.31,10.19-3.74,12.1-10.86c-0.9-12.25-1.81-35.05-2.6-44.88
	c-0.78-9.83-3.87-8.55-9.25-10c-5.38-1.46-8.46,4.33-9.05,8.43c-0.36,11.73-0.66,23.11-0.99,34.69
	c-8.42-2.36-14.39-7.33-22.79-10.75c-8.4-3.42-17.57-3.62-26.53-0.62c-0.04,18.02-1.06,23.78-15.71,34.97
	c-13.56-9.35-17.75-19.78-19.26-35.89c-9.98-2.2-17.78-1.5-26.85,3.24c-6.86,4.13-13.38,9.31-21.08,11.56
	c-0.08-9.54-1.06-25.82-1.76-33.83s-3.91-8.51-9.27-9.14s-8.41,4.35-9.01,9.17c-0.07,13.14-1.39,34.2-1.15,45.31
	c0.25,11.1,5.27,8.92,11.56,11.8C55.13,157.52,66.85,156.27,76.96,151.62z M120,190.71c-1.64,0-2.97-1.33-2.97-2.97
	c0-1.64,1.33-2.97,2.97-2.97c1.64,0,2.97,1.33,2.97,2.97C122.97,189.38,121.64,190.71,120,190.71z M120,174.7
	c-1.64,0-2.97-1.33-2.97-2.97c0-1.64,1.33-2.96,2.97-2.96c1.64,0,2.97,1.33,2.97,2.96C122.97,173.37,121.64,174.7,120,174.7z"/>
<path class="st2" d="M119.9,67.08c-13.04,0-22.96,9.92-22.96,22.96c0,13.04,9.93,22.96,22.96,22.96s22.96-9.93,22.96-22.96
	C142.86,77,132.94,67.08,119.9,67.08z"/>
<path class="st2" d="M196.81,74.74c3.95-7.01,5.99-13.68,6.72-24.39h15.2l-29.37-32.64l-29.37,32.64h17.13
	c0.23,5.32,0.21,9.71-1.55,16.07c-4.69,16.9-22.42,23.94-22.42,23.94S184.82,96.04,196.81,74.74z"/>
<path class="st4" d="M81.19,26.43H21.83c-3.51,0-6.38,2.87-6.38,6.38v41.6c0,3.51,2.87,6.38,6.38,6.38h36.35l16,16
	c0.51,0.51,1.38,0.15,1.38-0.57V80.79h5.63c3.51,0,6.38-2.87,6.38-6.38v-41.6C87.58,29.3,84.7,26.43,81.19,26.43z M47.21,60.86
	c-0.01,0.41-0.31,0.75-0.67,0.75h-5.89c-0.36,0-0.66-0.34-0.67-0.75l-0.62-24.22c-0.01-0.41,0.28-0.75,0.64-0.75h7.2
	c0.36,0,0.65,0.34,0.64,0.75L47.21,60.86z M47.78,68.68c0,2.31-1.88,4.19-4.19,4.19c-2.31,0-4.19-1.88-4.19-4.19
	c0-2.31,1.88-4.19,4.19-4.19C45.9,64.49,47.78,66.36,47.78,68.68z M63.05,60.86c-0.01,0.41-0.31,0.75-0.67,0.75h-5.89
	c-0.36,0-0.66-0.34-0.67-0.75L55.2,36.64c-0.01-0.41,0.28-0.75,0.64-0.75h7.2c0.36,0,0.65,0.34,0.64,0.75L63.05,60.86z M63.62,68.68
	c0,2.31-1.88,4.19-4.19,4.19s-4.19-1.88-4.19-4.19c0-2.31,1.88-4.19,4.19-4.19S63.62,66.36,63.62,68.68z"/>
</svg>
