<?xml version="1.0" encoding="utf-8"?>
<!-- Generator: Adobe Illustrator 24.0.0, SVG Export Plug-In . SVG Version: 6.00 Build 0)  -->
<svg version="1.1" id="レイヤー_1" xmlns="http://www.w3.org/2000/svg" xmlns:xlink="http://www.w3.org/1999/xlink" x="0px"
	 y="0px" viewBox="0 0 240 240" style="enable-background:new 0 0 240 240;" xml:space="preserve">
<style type="text/css">
	.st0{fill:#707070;}
	.st1{fill:#FF640A;}
	.st2{fill:#002B62;}
	.st3{fill-rule:evenodd;clip-rule:evenodd;fill:#FF640A;}
	.st4{fill-rule:evenodd;clip-rule:evenodd;fill:#002B62;}
</style>
<g>
	<path class="st1" d="M197.76,42.07l0.87,0.19c0.4,0.09,0.79-0.16,0.88-0.56l2.46-9.23c0.12-0.53-0.21-1.05-0.74-1.17l-1.15-0.26
		c-0.53-0.12-1.05,0.22-1.17,0.74l-1.69,9.4C197.12,41.59,197.37,41.98,197.76,42.07z"/>
	<path class="st1" d="M185.05,42.32c0.12,0.39,0.54,0.6,0.92,0.48l0.84-0.27c0.39-0.12,0.6-0.53,0.48-0.92l-2.48-9.23
		c-0.16-0.52-0.71-0.81-1.23-0.64l-1.12,0.35c-0.52,0.16-0.8,0.71-0.64,1.23L185.05,42.32z"/>
	<path class="st1" d="M176.14,49.33l0.6-0.65c0.28-0.3,0.25-0.76-0.04-1.04l-6.76-6.74c-0.4-0.37-1.02-0.34-1.39,0.06l-0.79,0.87
		c-0.37,0.4-0.34,1.02,0.06,1.38l7.3,6.17C175.4,49.65,175.86,49.63,176.14,49.33z"/>
	<path class="st1" d="M225.56,53.65c-0.16-0.52-0.71-0.81-1.23-0.65l-8.99,3.24c-0.39,0.12-0.6,0.53-0.48,0.92l0.26,0.84
		c0.12,0.39,0.54,0.6,0.92,0.48l9.23-2.48c0.52-0.16,0.81-0.72,0.64-1.23L225.56,53.65z"/>
	<path class="st1" d="M208.33,47.33l0.65,0.59c0.3,0.28,0.76,0.25,1.04-0.04l6.75-6.77c0.37-0.4,0.34-1.02-0.06-1.39l-0.87-0.8
		c-0.4-0.37-1.02-0.34-1.39,0.06l-6.17,7.3C208.01,46.58,208.03,47.05,208.33,47.33z"/>
	<path class="st1" d="M195.84,52.74c-12.4-2.75-24.73,5.09-27.48,17.49c-1.53,6.87,0.14,13.96,4.55,19.45
		c0.6,0.74,0.47,1.57,0.04,3.15c-0.33,1.24-0.74,2.78,0.13,4.22c0.25,0.41,0.69,0.91,1.39,1.27l-1.24,5.58l-1.48,6.68l5.48,3.29
		l1.11,0.25c0.04,1.37,1.37,2.71,3.24,3.12c1.87,0.42,3.64-0.23,4.26-1.46l1.11,0.25l6.36-0.66l1.48-6.68l1.25-5.62
		c0.71-0.07,1.28-0.3,1.66-0.55c1.4-0.93,1.68-2.51,1.9-3.77c0.29-1.61,0.51-2.42,1.37-2.83c6.33-3.1,10.83-8.83,12.36-15.7
		C216.09,67.82,208.24,55.5,195.84,52.74z M198.63,91.14c-2.86,1.4-3.71,3.95-4.09,5.77l-16.21-3.6c0.42-1.81,0.73-4.48-1.27-6.96
		c-3.4-4.22-4.68-9.68-3.5-14.96c2.12-9.54,11.6-15.57,21.13-13.45c9.54,2.12,15.57,11.6,13.45,21.13
		C206.96,84.35,203.5,88.75,198.63,91.14z"/>
</g>
<path class="st1" d="M119.9,60.7c-12.9,0-23.35,10.45-23.35,23.34c0,12.89,10.45,23.35,23.35,23.35c12.89,0,23.34-10.45,23.34-23.35
	C143.24,71.15,132.79,60.7,119.9,60.7z"/>
<rect x="114.81" y="116.14" class="st1" width="10.54" height="5.27"/>
<polygon class="st1" points="114.81,136.79 120.08,143.56 125.35,136.79 125.35,123.72 114.81,123.72 "/>
<path class="st1" d="M176.6,173.01c4.35,4.35,11.41,4.35,15.76,0l31.66-34.57c3.55-3.55,3.55-9.3,0-12.85
	c-3.55-3.55-9.3-3.55-12.85,0l-26.53,24.33l-16.03-18.61c-5.82-6.18-12.29-11.99-23.22-15.49l-25.31,32.48L94.7,115.74
	c-11.11,3.49-17.65,9.35-23.52,15.58L45.14,160.5c-2.56,3.51-2.93,8.35-0.56,12.31l24.48,36.76c2.58,4.3,8.16,5.7,12.46,3.12
	c4.3-2.58,5.7-8.16,3.12-12.47l-16.45-30.53l16.26-15.88c0.61,19.98,1.78,53.18,3,86.58h64.9c1.22-33.4,2.39-66.6,3-86.58
	L176.6,173.01z M120.08,182.38c-1.64,0-2.97-1.33-2.97-2.97c0-1.64,1.33-2.97,2.97-2.97c1.64,0,2.97,1.33,2.97,2.97
	C123.05,181.05,121.72,182.38,120.08,182.38z M120.08,166.36c-1.64,0-2.97-1.33-2.97-2.97c0-1.64,1.33-2.96,2.97-2.96
	c1.64,0,2.97,1.33,2.97,2.96C123.05,165.04,121.72,166.36,120.08,166.36z"/>
<path class="st3" d="M79.13,42.58H19.77c-3.51,0-6.38,2.87-6.38,6.38v41.6c0,3.51,2.87,6.38,6.38,6.38h36.35l16,16
	c0.51,0.51,1.38,0.15,1.38-0.57V96.94h5.63c3.51,0,6.38-2.87,6.38-6.38v-41.6C85.52,45.45,82.64,42.58,79.13,42.58z M70.84,52.96
	c0,0-16.17,14.83-22.9,35l-6.23,0.2L28.06,70.28l6.29-5.65l9.46,11.3c0,0,10.41-16.91,21.3-22.96H70.84z"/>
</svg>
